<svg xmlns="http://www.w3.org/2000/svg" viewBox="0 0 174.68 144.27"><defs><style>.cls-1,.cls-2{fill-opacity:0;stroke:#fff;}.cls-2{fill:#fff;}.cls-3{fill:#ff0909;stroke:red;}.cls-4{fill:#09d217;}</style></defs><title>Asset 1</title><g id="Layer_2" data-name="Layer 2"><g id="Layer_1-2" data-name="Layer 1"><path class="cls-1" d="M152.95,15.29c-3.63-2.31-12.71,9.45-10.45,13.16,3.53,5.81,7.31,13.43,8.63,19.19,1.16,5-.81,11.16.47,16.74S148.29,77,148.13,83c-.08,3.13-3.86,8.69-3.76,12.37.21,7.39-6.7,21.45-11.18,28.5L123.58,139c-.52.81-3.7,5.43-.19,4.67,5.86-1.26,10.79-11.76,15.71-14.67,9.23-5.44,10.68-13,16-18.6,11.51-12.17,14.38-25.72,17.78-38,1-3.54,1.64-11.27,1.13-13.33-.93-3.81.32-15.24-.77-20-1.7-7.41-4.28-16.69-9.74-21.63-1.46-1.32-5.64-.94-6.47-2.74-2-4.29-1.85-4.29-2.92-5.77-.42-.58-1.21-2.79-1.61-3.21C148.77,1.79,151,.1,148.36.67c-7.44,1.6-1.89,5.37.42,9.17.23.37,3.76,3.51,3.76,3.51"/><path class="cls-1" d="M137.39,29.89c-2.41-3.57-15.42,3.59-14.83,7.9.92,6.74,1.35,15.23.26,21-.95,5.07-5.2,9.91-6.25,15.53s-8.07,10.25-10.62,15.72c-1.32,2.84-7,6.43-8.38,9.84-2.76,6.86-14.7,17-21.62,21.68l-14.85,10c-.8.54-5.56,3.5-2,4.21,5.88,1.18,14.59-6.48,20.26-7.18C90,127.35,94.29,121,101.4,118c15.41-6.56,23.45-17.85,31.46-27.76,2.31-2.85,6-9.68,6.36-11.77.67-3.86,6.37-13.85,7.27-18.65,1.39-7.47,2.73-17-.3-23.72-.81-1.8-4.79-3.11-4.84-5.1-.11-4.72,0-4.67-.38-6.46-.15-.7,0-3-.19-3.59-1.85-5.1.89-5.76-1.78-6.29-7.46-1.5-3.88,4.17-3.27,8.58.06.43,2.05,4.72,2.05,4.72"/><path class="cls-2" d="M132,12.32c1-4.18-13.23-9.22-15.8-5.71-5.62,7.67-11.08,12.55-15.44,14.29C96,22.81,89.93,23.69,85.05,26.68s-13,.88-18.79,2.65c-3,.92-9.47-.89-12.92.38-6.94,2.55-22.47.48-30.58-1.52l-17.4-4.3C4.43,23.66-1,22.11.88,25.19c3.06,5.15,14.59,6.48,18.91,10.22,8.1,7,15.71,6,22.72,9.24,15.2,7,29,5.44,41.69,4.75,3.66-.2,11.2-2,13-3.17,3.31-2.09,14.55-4.55,18.71-7.1,6.48-4,14.46-9.38,17.4-16.12.79-1.81-.9-5.64.54-7,3.43-3.24,3.48-3.12,4.54-4.6.42-.59,2.26-2,2.53-2.55,2.55-4.79,4.87-3.19,3.48-5.54-3.89-6.54-5.69-.08-8.56,3.32-.28.33-2.13,4.68-2.13,4.68"/><path class="cls-3" d="M140.3,31.13c-.88-4.21-15.64-2.5-16.72,1.72-1.69,6.59-4.5,14.61-7.7,19.58-2.79,4.34-8.56,7.22-11.65,12S92.89,70.9,88.46,75c-2.3,2.13-8.91,3.31-11.47,6-5.14,5.31-20,10.19-28.21,11.91L31.25,96.55c-.94.2-6.47,1.14-3.48,3.13,5,3.31,16-.49,21.47,1,10.34,2.8,16.75-1.43,24.48-1.55,16.75-.26,28.45-7.68,39.62-13.83,3.21-1.77,9.21-6.7,10.33-8.5,2.08-3.32,11.13-10.42,13.77-14.53,4.11-6.39,9-14.73,8.68-22.08-.07-2-3.26-4.69-2.56-6.54,1.68-4.41,1.78-4.32,2.09-6.12.12-.71,1.15-2.82,1.18-3.39.21-5.42,3-5,.73-6.5-6.34-4.2-5.16,2.4-6.27,6.7-.11.42.12,5.14.12,5.14"/><path class="cls-4" d="M123.63,32.84S124.9,36,125,36.33c.66,2,2.5,1.87,3.48,3.83,1.63,3.26,8.37,4.65,11.85,7s6.87-2.84,7.67-4.18c1.78-3-.77-5.12-1-5.57-1.17-1.94-2.57-4.87-1.25-8.36,1.06-2.82,3-5.38,3-9.41,0-.65.31-3.21,0-3.83s-1.36-1.28-1.39-1.74c-1.38-20.22-8.71,7.82-8.71,12.19a3.29,3.29,0,0,1-.7,1.74s-1.86-1.16-2.09-1.39c-.55-.55-5.62-1-7,.35A16.72,16.72,0,0,1,125,29s-1.74,2.79-1.74,2.79"/></g></g></svg>